REM DIRINDEX 1\2\4,1\2\5,1\2\6,1\3\7,1\3\8,1\3\9,1\3\10
REM DIRNAME cjc057,folder01,folder02,folder03,folder04,folder05,folder06,folder07,folder08,folder09
TITLE ""
FILE "a_120.mp3" MP3
  TRACK 01 AUDIO
    TITLE "0:"
    INDEX 01 00:00:00
  TRACK 02 AUDIO
    TITLE "4:cjc057_02068"
    INDEX 01 00:00:13
  TRACK 03 AUDIO
    TITLE "0:"
    INDEX 01 00:01:62
  TRACK 04 AUDIO
    TITLE "5:cjc057_02069"
    INDEX 01 00:02:16
  TRACK 05 AUDIO
    TITLE "0:"
    INDEX 01 00:03:49
  TRACK 06 AUDIO
    TITLE "4:cjc057_02070"
    INDEX 01 00:04:52
  TRACK 07 AUDIO
    TITLE "0:"
    INDEX 01 00:06:22
  TRACK 08 AUDIO
    TITLE "5:cjc057_02071"
    INDEX 01 00:06:53
  TRACK 09 AUDIO
    TITLE "0:"
    INDEX 01 00:08:62
  TRACK 10 AUDIO
    TITLE "4:cjc057_02072"
    INDEX 01 00:09:65
  TRACK 11 AUDIO
    TITLE "0:"
    INDEX 01 00:11:19
  TRACK 12 AUDIO
    TITLE "5:cjc057_02073"
    INDEX 01 00:11:48
  TRACK 13 AUDIO
    TITLE "0:"
    INDEX 01 00:12:46
  TRACK 14 AUDIO
    TITLE "4:cjc057_02074"
    INDEX 01 00:13:49
  TRACK 15 AUDIO
    TITLE "0:"
    INDEX 01 00:15:07
  TRACK 16 AUDIO
    TITLE "5:cjc057_02075"
    INDEX 01 00:15:36
  TRACK 17 AUDIO
    TITLE "0:"
    INDEX 01 00:17:55
  TRACK 18 AUDIO
    TITLE "4:cjc057_02076"
    INDEX 01 00:18:60
  TRACK 19 AUDIO
    TITLE "0:"
    INDEX 01 00:20:22
  TRACK 20 AUDIO
    TITLE "5:cjc057_02077"
    INDEX 01 00:20:49
  TRACK 21 AUDIO
    TITLE "0:"
    INDEX 01 00:26:20
  TRACK 22 AUDIO
    TITLE "4:cjc057_02078"
    INDEX 01 00:27:26
  TRACK 23 AUDIO
    TITLE "0:"
    INDEX 01 00:28:64
  TRACK 24 AUDIO
    TITLE "5:cjc057_02079"
    INDEX 01 00:29:19
  TRACK 25 AUDIO
    TITLE "0:"
    INDEX 01 00:32:19
  TRACK 26 AUDIO
    TITLE "4:cjc057_02080"
    INDEX 01 00:33:24
  TRACK 27 AUDIO
    TITLE "0:"
    INDEX 01 00:34:65
  TRACK 28 AUDIO
    TITLE "5:cjc057_02081"
    INDEX 01 00:35:19
  TRACK 29 AUDIO
    TITLE "0:"
    INDEX 01 00:36:25
  TRACK 30 AUDIO
    TITLE "4:cjc057_02082"
    INDEX 01 00:37:30
  TRACK 31 AUDIO
    TITLE "0:"
    INDEX 01 00:38:67
  TRACK 32 AUDIO
    TITLE "5:cjc057_02083"
    INDEX 01 00:39:23
  TRACK 33 AUDIO
    TITLE "0:"
    INDEX 01 00:41:49
  TRACK 34 AUDIO
    TITLE "4:cjc057_02084"
    INDEX 01 00:42:55
  TRACK 35 AUDIO
    TITLE "0:"
    INDEX 01 00:44:16
  TRACK 36 AUDIO
    TITLE "5:cjc057_02085"
    INDEX 01 00:44:46
  TRACK 37 AUDIO
    TITLE "0:"
    INDEX 01 00:45:55
  TRACK 38 AUDIO
    TITLE "4:cjc057_02086"
    INDEX 01 00:46:58
  TRACK 39 AUDIO
    TITLE "0:"
    INDEX 01 00:48:22
  TRACK 40 AUDIO
    TITLE "5:cjc057_02087"
    INDEX 01 00:48:51
  TRACK 41 AUDIO
    TITLE "0:"
    INDEX 01 00:50:70
  TRACK 42 AUDIO
    TITLE "4:cjc057_02088"
    INDEX 01 00:51:73
  TRACK 43 AUDIO
    TITLE "0:"
    INDEX 01 00:53:13
  TRACK 44 AUDIO
    TITLE "5:cjc057_02089"
    INDEX 01 00:53:43
  TRACK 45 AUDIO
    TITLE "0:"
    INDEX 01 00:56:59
  TRACK 46 AUDIO
    TITLE "4:cjc057_02090"
    INDEX 01 00:57:64
  TRACK 47 AUDIO
    TITLE "0:"
    INDEX 01 00:58:73
  TRACK 48 AUDIO
    TITLE "5:cjc057_02091"
    INDEX 01 00:59:28
  TRACK 49 AUDIO
    TITLE "0:"
    INDEX 01 01:01:46
  TRACK 50 AUDIO
    TITLE "4:cjc057_02092"
    INDEX 01 01:02:54
  TRACK 51 AUDIO
    TITLE "0:"
    INDEX 01 01:04:25
  TRACK 52 AUDIO
    TITLE "5:cjc057_02093"
    INDEX 01 01:04:56
  TRACK 53 AUDIO
    TITLE "0:"
    INDEX 01 01:07:10
  TRACK 54 AUDIO
    TITLE "4:cjc057_02094"
    INDEX 01 01:08:13
  TRACK 55 AUDIO
    TITLE "0:"
    INDEX 01 01:09:34
  TRACK 56 AUDIO
    TITLE "5:cjc057_02095"
    INDEX 01 01:09:63
  TRACK 57 AUDIO
    TITLE "0:"
    INDEX 01 01:11:68
  TRACK 58 AUDIO
    TITLE "4:cjc057_02096"
    INDEX 01 01:12:73
  TRACK 59 AUDIO
    TITLE "0:"
    INDEX 01 01:14:37
  TRACK 60 AUDIO
    TITLE "5:cjc057_02097"
    INDEX 01 01:14:66
  TRACK 61 AUDIO
    TITLE "0:"
    INDEX 01 01:16:11
  TRACK 62 AUDIO
    TITLE "4:cjc057_02098"
    INDEX 01 01:17:12
  TRACK 63 AUDIO
    TITLE "0:"
    INDEX 01 01:18:43
  TRACK 64 AUDIO
    TITLE "5:cjc057_02099"
    INDEX 01 01:18:74
  TRACK 65 AUDIO
    TITLE "0:"
    INDEX 01 01:20:10
  TRACK 66 AUDIO
    TITLE "4:cjc057_02100"
    INDEX 01 01:21:14
  TRACK 67 AUDIO
    TITLE "0:"
    INDEX 01 01:22:52
  TRACK 68 AUDIO
    TITLE "5:cjc057_02101"
    INDEX 01 01:23:09
  TRACK 69 AUDIO
    TITLE "0:"
    INDEX 01 01:25:74
  TRACK 70 AUDIO
    TITLE "4:cjc057_02102"
    INDEX 01 01:27:03
  TRACK 71 AUDIO
    TITLE "0:"
    INDEX 01 01:28:49
  TRACK 72 AUDIO
    TITLE "5:cjc057_02103"
    INDEX 01 01:29:03
  TRACK 73 AUDIO
    TITLE "0:"
    INDEX 01 01:30:22
  TRACK 74 AUDIO
    TITLE "4:cjc057_02104"
    INDEX 01 01:31:26
  TRACK 75 AUDIO
    TITLE "0:"
    INDEX 01 01:32:49
  TRACK 76 AUDIO
    TITLE "5:cjc057_02105"
    INDEX 01 01:33:05
  TRACK 77 AUDIO
    TITLE "0:"
    INDEX 01 01:35:61
  TRACK 78 AUDIO
    TITLE "4:cjc057_02106"
    INDEX 01 01:36:66
  TRACK 79 AUDIO
    TITLE "0:"
    INDEX 01 01:38:34
  TRACK 80 AUDIO
    TITLE "5:cjc057_02107"
    INDEX 01 01:38:63
  TRACK 81 AUDIO
    TITLE "0:"
    INDEX 01 01:41:09
  TRACK 82 AUDIO
    TITLE "4:cjc057_02108"
    INDEX 01 01:42:14
  TRACK 83 AUDIO
    TITLE "0:"
    INDEX 01 01:43:49
  TRACK 84 AUDIO
    TITLE "5:cjc057_02109"
    INDEX 01 01:44:01
  TRACK 85 AUDIO
    TITLE "0:"
    INDEX 01 01:46:25
  TRACK 86 AUDIO
    TITLE "4:cjc057_02110"
    INDEX 01 01:47:31
  TRACK 87 AUDIO
    TITLE "0:"
    INDEX 01 01:49:04
  TRACK 88 AUDIO
    TITLE "5:cjc057_02111"
    INDEX 01 01:49:30
  TRACK 89 AUDIO
    TITLE "0:"
    INDEX 01 01:50:58
  TRACK 90 AUDIO
    TITLE "4:cjc057_02112"
    INDEX 01 01:51:62
  TRACK 91 AUDIO
    TITLE "0:"
    INDEX 01 01:53:02
  TRACK 92 AUDIO
    TITLE "5:cjc057_02113"
    INDEX 01 01:53:27
  TRACK 93 AUDIO
    TITLE "0:"
    INDEX 01 01:55:46
  TRACK 94 AUDIO
    TITLE "4:cjc057_02114"
    INDEX 01 01:56:51
  TRACK 95 AUDIO
    TITLE "0:"
    INDEX 01 01:57:74
  TRACK 96 AUDIO
    TITLE "5:cjc057_02115"
    INDEX 01 01:58:27
  TRACK 97 AUDIO
    TITLE "0:"
    INDEX 01 02:01:37
  TRACK 98 AUDIO
    TITLE "4:cjc057_02116"
    INDEX 01 02:02:42
  TRACK 99 AUDIO
    TITLE "0:"
    INDEX 01 02:04:10
  TRACK 100 AUDIO
    TITLE "5:cjc057_02117"
    INDEX 01 02:04:39
  TRACK 101 AUDIO
    TITLE "0:"
    INDEX 01 02:06:46
  TRACK 102 AUDIO
    TITLE "4:cjc057_02118"
    INDEX 01 02:07:51
  TRACK 103 AUDIO
    TITLE "0:"
    INDEX 01 02:09:19
  TRACK 104 AUDIO
    TITLE "5:cjc057_02119"
    INDEX 01 02:09:48
  TRACK 105 AUDIO
    TITLE "0:"
    INDEX 01 02:12:70
  TRACK 106 AUDIO
    TITLE "4:cjc057_02120"
    INDEX 01 02:13:73
  TRACK 107 AUDIO
    TITLE "0:"
    INDEX 01 02:15:37
  TRACK 108 AUDIO
    TITLE "5:cjc057_02121"
    INDEX 01 02:15:66
  TRACK 109 AUDIO
    TITLE "0:"
    INDEX 01 02:17:61
  TRACK 110 AUDIO
    TITLE "4:cjc057_02122"
    INDEX 01 02:18:65
  TRACK 111 AUDIO
    TITLE "0:"
    INDEX 01 02:20:16
  TRACK 112 AUDIO
    TITLE "5:cjc057_02123"
    INDEX 01 02:20:46
  TRACK 113 AUDIO
    TITLE "0:"
    INDEX 01 02:24:73
